<?xml version="1.0" standalone="no"?>
<!DOCTYPE svg PUBLIC "-//W3C//DTD SVG 20010904//EN"
 "http://www.w3.org/TR/2001/REC-SVG-20010904/DTD/svg10.dtd">
<svg version="1.0" xmlns="http://www.w3.org/2000/svg"
 width="500.000000pt" height="500.000000pt" viewBox="0 0 500.000000 500.000000"
 preserveAspectRatio="xMidYMid meet">
<metadata>
Created by potrace 1.14, written by Peter Selinger 2001-2017
</metadata>
<g transform="translate(0.000000,500.000000) scale(0.100000,-0.100000)"
fill="#000000" stroke="none">
<path d="M2040 3540 l0 -180 35 0 35 0 0 70 0 70 60 0 c99 0 143 34 142 111
-1 84 -44 109 -182 109 l-90 0 0 -180z m186 109 c8 -6 14 -24 14 -40 0 -37
-33 -59 -87 -59 l-43 0 0 53 c0 30 3 57 8 61 10 11 92 -1 108 -15z"/>
<path d="M2370 3540 l0 -180 35 0 35 0 0 75 0 75 38 0 c55 0 72 -17 86 -86 12
-59 12 -59 50 -62 33 -3 38 -1 32 13 -3 9 -9 35 -12 58 -8 48 -21 77 -43 93
-13 10 -12 12 7 18 12 4 29 21 38 38 13 26 14 38 5 69 -16 54 -55 69 -175 69
l-96 0 0 -180z m185 110 c18 -15 20 -61 3 -78 -7 -7 -36 -12 -65 -12 l-53 0 0
56 0 57 50 -5 c27 -3 56 -11 65 -18z"/>
<path d="M2710 3540 l0 -180 35 0 35 0 0 180 0 180 -35 0 -35 0 0 -180z"/>
<path d="M2870 3540 l0 -180 36 0 36 0 -4 135 c-2 74 -3 135 -2 135 3 0 10
-22 54 -167 l31 -103 38 0 38 0 37 128 c21 70 39 132 41 137 2 6 4 -52 4 -127
l1 -138 35 0 35 0 0 180 0 180 -54 0 -54 0 -38 -140 c-21 -77 -41 -140 -44
-140 -3 0 -23 63 -44 140 l-38 140 -54 0 -54 0 0 -180z"/>
<path d="M3340 3540 l0 -180 125 0 125 0 0 30 0 30 -90 0 -90 0 0 45 0 44 83
3 c81 3 82 3 85 31 l3 27 -85 0 -86 0 0 50 0 50 90 0 c89 0 90 0 90 25 l0 25
-125 0 -125 0 0 -180z"/>
<path d="M2137 2986 c-78 -28 -111 -80 -111 -176 0 -99 40 -157 124 -180 86
-23 171 20 195 98 6 20 3 22 -27 22 -26 -1 -37 -7 -53 -33 -19 -29 -25 -32
-70 -32 -45 0 -51 3 -73 35 -20 30 -23 44 -20 102 3 53 8 72 27 91 43 47 119
40 141 -14 10 -24 18 -29 47 -29 33 0 35 1 28 28 -9 38 -52 80 -94 92 -47 13
-68 12 -114 -4z"/>
<path d="M2475 2888 c-21 -57 -50 -138 -66 -180 l-28 -78 37 0 c38 0 39 1 56
55 l17 55 63 0 62 0 18 -55 c17 -54 18 -55 56 -55 l39 0 -41 113 c-22 61 -50
141 -62 177 l-23 65 -45 3 -45 3 -38 -103z m103 -27 c11 -33 18 -62 14 -65 -3
-3 -20 -6 -37 -6 -17 0 -34 3 -37 6 -6 5 30 124 37 124 2 0 12 -27 23 -59z"/>
<path d="M2770 2810 l0 -180 35 0 34 0 3 73 3 72 33 3 c51 5 78 -19 87 -74 10
-70 13 -74 56 -74 35 0 39 2 30 18 -5 9 -14 43 -21 75 -7 36 -19 62 -30 69
-17 11 -17 13 10 30 57 34 51 120 -10 150 -26 14 -60 18 -132 18 l-98 0 0
-180z m168 119 c36 -12 47 -45 26 -76 -12 -19 -23 -23 -69 -23 l-55 0 0 48 c0
27 3 52 7 55 10 10 56 8 91 -4z"/>
<path d="M3120 2810 l0 -180 125 0 125 0 0 30 0 30 -90 0 -90 0 0 45 0 44 83
3 c81 3 82 3 85 31 l3 27 -85 0 -86 0 0 50 0 50 90 0 c89 0 90 0 90 25 l0 25
-125 0 -125 0 0 -180z"/>
<path d="M1200 2240 l0 -340 335 0 335 0 0 340 0 340 -335 0 -335 0 0 -340z
m400 135 l0 -65 65 0 65 0 0 -65 0 -64 -62 -3 -63 -3 -3 -67 -3 -68 -64 0 -64
0 -3 68 -3 67 -62 3 -63 3 0 64 0 65 65 0 65 0 0 65 0 65 65 0 65 0 0 -65z"/>
<path d="M3000 2105 c0 -77 4 -125 10 -125 6 0 10 17 10 38 0 65 18 111 46
118 41 10 54 -10 54 -87 0 -57 3 -69 16 -69 15 0 16 10 10 78 -4 55 -11 81
-23 90 -20 14 -69 16 -78 2 -14 -23 -25 -7 -25 35 0 25 -4 45 -10 45 -6 0 -10
-48 -10 -125z"/>
<path d="M2792 2103 c3 -114 4 -118 26 -121 25 -4 30 13 7 22 -12 4 -15 26
-15 111 0 65 -4 105 -10 105 -7 0 -10 -42 -8 -117z"/>
<path d="M2160 2095 c0 -70 4 -115 10 -115 6 0 10 23 10 50 l0 50 65 0 65 0 0
-50 c0 -38 4 -50 15 -50 12 0 15 19 15 115 0 96 -3 115 -15 115 -12 0 -15 -13
-15 -55 l0 -56 -62 3 -63 3 -3 53 c-2 28 -7 52 -13 52 -5 0 -9 -49 -9 -115z"/>
<path d="M2890 2175 c0 -9 -7 -18 -16 -22 -15 -6 -15 -7 -1 -18 11 -8 17 -32
19 -81 3 -63 5 -69 26 -72 25 -4 30 13 7 22 -11 4 -15 21 -15 65 0 52 2 59 23
65 l22 7 -22 9 c-13 5 -23 16 -23 25 0 8 -4 15 -10 15 -5 0 -10 -7 -10 -15z"/>
<path d="M2415 2135 c-52 -51 -19 -155 49 -155 36 0 76 24 76 46 0 21 -18 17
-30 -6 -14 -27 -65 -27 -80 -1 -19 36 -12 41 56 41 56 0 65 2 60 16 -3 9 -6
22 -6 30 0 24 -39 54 -70 54 -19 0 -40 -9 -55 -25z m89 -17 c24 -34 20 -38
-34 -38 -54 0 -62 10 -33 42 22 24 49 23 67 -4z"/>
<path d="M2616 2144 c-17 -16 -22 -44 -8 -44 4 0 13 9 20 20 16 26 48 26 63
-1 13 -25 -1 -39 -39 -39 -39 0 -62 -18 -62 -48 0 -36 17 -52 55 -52 17 0 36
5 43 12 9 9 12 9 12 0 0 -7 6 -12 13 -12 20 0 10 151 -11 168 -22 17 -67 15
-86 -4z m78 -83 c4 -5 2 -21 -4 -35 -7 -20 -16 -26 -40 -26 -25 0 -30 4 -30
25 0 17 7 29 23 35 29 12 45 12 51 1z"/>
</g>
</svg>
